<svg width="215" height="46" viewBox="0 0 215 46" fill="none" xmlns="http://www.w3.org/2000/svg">
<path fill-rule="evenodd" clip-rule="evenodd" d="M38.2232 28.0447C35.876 28.484 33.673 29.12 31.6864 30.0116C31.47 30.11 31.4044 30.2476 31.3847 30.3067C31.3519 30.4116 31.3651 30.51 31.4175 30.6017C31.4503 30.6608 31.5028 30.7329 31.6142 30.7788C31.6929 30.8116 31.8962 30.8378 32.165 30.8312C32.6239 30.8247 33.3321 30.7722 33.673 30.7722C34.8401 30.7853 36.0071 30.7787 37.1742 30.7984C40.8917 30.864 41.5408 30.9164 46.3205 30.8771C51.9001 30.8312 57.4928 30.7525 63.079 30.6345C45.3239 31.618 27.5951 32.7654 9.95805 33.8341C9.76135 33.8472 9.61055 34.0177 9.62366 34.2144C9.63022 34.4177 9.80722 34.5685 10.0039 34.5554C51.1592 32.0639 92.7669 29.1265 134.237 28.9364C136.283 28.9823 138.322 29.0281 140.354 29.074C152.634 29.3625 164.921 29.71 177.189 30.2477C181.181 30.4247 185.174 30.6214 189.174 30.805C190.354 30.8574 191.541 30.9099 192.728 30.9623C193.685 31.0016 196.15 31.1459 196.498 31.1525C196.812 31.159 196.891 30.8771 196.897 30.864C196.917 30.7722 196.904 30.6673 196.825 30.5689C196.806 30.5427 196.753 30.4706 196.635 30.4378C196.616 30.4378 196.524 30.4247 196.334 30.405C186.473 29.5986 176.585 29.0413 166.679 28.6872C168.009 28.7003 169.34 28.7069 170.671 28.72C180.932 28.7987 191.22 29.0806 201.474 28.72C203.808 28.6414 206.149 28.5495 208.476 28.4381C210.043 28.3659 214.076 28.4577 214.646 28.2873C214.908 28.2152 214.967 28.0316 214.974 27.9398C214.98 27.8349 214.961 27.7168 214.843 27.6119C214.79 27.5595 214.626 27.4743 214.318 27.4087C204.254 25.2254 192.478 25.8417 182.231 25.2319C154.398 23.56 126.664 24.6747 98.8382 25.6909C74.8216 26.5695 50.8051 26.6154 26.8017 27.8087C18.016 28.2414 8.95491 27.7431 0.29375 29.3954C0.0970545 29.4347 -0.027561 29.6182 0.00522161 29.8149C0.0445607 30.0116 0.234716 30.1428 0.431411 30.1034C9.05323 28.4578 18.0816 28.9626 26.8345 28.5299C30.6307 28.3397 34.427 28.1824 38.2232 28.0447ZM112.476 28.5299C97.7695 28.3004 83.0633 28.1823 68.3439 28.2545C58.2468 28.3004 43.534 26.3794 33.5025 30.051C33.5746 30.051 33.6336 30.051 33.6861 30.051C34.8531 30.0641 36.0202 30.051 37.1873 30.0772C40.8983 30.1428 41.5473 30.1952 46.3139 30.1559C58.5025 30.051 70.7239 29.7887 82.9059 29.3822C92.7734 29.0544 102.628 28.7593 112.476 28.5299ZM211.958 27.684C202.444 26.0187 191.659 26.5171 182.185 25.9532C154.378 24.2813 126.664 25.3959 98.8644 26.4121C86.4398 26.8711 74.0218 27.1005 61.6103 27.3825C63.9903 27.4743 66.2655 27.5398 68.3439 27.5333C89.3837 27.4284 110.417 27.7103 131.457 28.1562C144.524 27.9595 157.591 27.8874 170.678 27.9923C180.932 28.0775 191.2 28.3529 201.454 27.9988C203.782 27.9201 206.116 27.8283 208.443 27.7169C209.237 27.6841 210.673 27.6906 211.958 27.684Z" fill="#F7C35F"/>
<path d="M10.5347 6.5918C13.0737 6.5918 15.2547 7.51139 17.0776 9.35059C18.9087 11.1898 19.8242 13.4318 19.8242 16.0767C19.8242 18.6971 18.9209 20.9147 17.1143 22.7295C15.3158 24.5443 13.1307 25.4517 10.5591 25.4517C7.8654 25.4517 5.62744 24.5199 3.84521 22.6562C2.06299 20.7926 1.17188 18.5791 1.17188 16.0156C1.17188 14.2985 1.58691 12.7197 2.41699 11.2793C3.24707 9.83887 4.38639 8.69954 5.83496 7.86133C7.29167 7.01497 8.85824 6.5918 10.5347 6.5918ZM10.498 9.93652C8.83789 9.93652 7.44222 10.5143 6.31104 11.6699C5.17985 12.8255 4.61426 14.2944 4.61426 16.0767C4.61426 18.0623 5.32633 19.633 6.75049 20.7886C7.85726 21.6919 9.12679 22.1436 10.5591 22.1436C12.1785 22.1436 13.5579 21.5576 14.6973 20.3857C15.8366 19.2139 16.4062 17.7694 16.4062 16.0522C16.4062 14.3433 15.8325 12.8988 14.6851 11.7188C13.5376 10.5306 12.1419 9.93652 10.498 9.93652ZM21.8994 11.7188H24.7559V13.3911C25.0651 12.7319 25.4761 12.2314 25.9888 11.8896C26.5015 11.5479 27.063 11.377 27.6733 11.377C28.1047 11.377 28.5563 11.4909 29.0283 11.7188L27.9907 14.5874C27.6001 14.3921 27.2786 14.2944 27.0264 14.2944C26.5137 14.2944 26.0783 14.6118 25.7202 15.2466C25.3703 15.8813 25.1953 17.1265 25.1953 18.9819L25.2075 19.6289V25H21.8994V11.7188ZM31.9946 6.25C32.5806 6.25 33.0811 6.46159 33.4961 6.88477C33.9193 7.30794 34.1309 7.82064 34.1309 8.42285C34.1309 9.01693 33.9233 9.52555 33.5083 9.94873C33.0933 10.3638 32.5968 10.5713 32.019 10.5713C31.425 10.5713 30.9163 10.3597 30.4932 9.93652C30.0781 9.50521 29.8706 8.98438 29.8706 8.37402C29.8706 7.78809 30.0781 7.2876 30.4932 6.87256C30.9082 6.45752 31.4087 6.25 31.9946 6.25ZM30.3223 11.7188H33.667V25H30.3223V11.7188ZM46.5088 11.7188H49.8291V23.0957C49.8291 25.3418 49.3774 26.9938 48.4741 28.0518C47.2616 29.484 45.4346 30.2002 42.9932 30.2002C41.6911 30.2002 40.5965 30.0374 39.7095 29.7119C38.8224 29.3864 38.0737 28.9062 37.4634 28.2715C36.853 27.6449 36.4014 26.8799 36.1084 25.9766H39.7827C40.1082 26.3509 40.5273 26.6317 41.04 26.8188C41.5527 27.0142 42.159 27.1118 42.8589 27.1118C43.7541 27.1118 44.4743 26.9735 45.0195 26.6968C45.5648 26.4201 45.9473 26.062 46.167 25.6226C46.3949 25.1831 46.5088 24.4263 46.5088 23.3521C45.9229 23.938 45.3084 24.3612 44.6655 24.6216C44.0226 24.8739 43.2943 25 42.4805 25C40.6982 25 39.1927 24.3571 37.9639 23.0713C36.735 21.7855 36.1206 20.1579 36.1206 18.1885C36.1206 16.0807 36.7716 14.388 38.0737 13.1104C39.2537 11.9548 40.6616 11.377 42.2974 11.377C43.0623 11.377 43.7826 11.5194 44.458 11.8042C45.1416 12.0809 45.8252 12.5407 46.5088 13.1836V11.7188ZM43.0542 14.4897C42.0044 14.4897 41.1377 14.8438 40.4541 15.5518C39.7705 16.2516 39.4287 17.1346 39.4287 18.2007C39.4287 19.3075 39.7786 20.2148 40.4785 20.9229C41.1784 21.6309 42.0573 21.9849 43.1152 21.9849C44.1488 21.9849 44.9992 21.639 45.6665 20.9473C46.342 20.2555 46.6797 19.3481 46.6797 18.2251C46.6797 17.1183 46.342 16.2191 45.6665 15.5273C44.991 14.8356 44.1203 14.4897 43.0542 14.4897ZM54.5044 6.25C55.0903 6.25 55.5908 6.46159 56.0059 6.88477C56.429 7.30794 56.6406 7.82064 56.6406 8.42285C56.6406 9.01693 56.4331 9.52555 56.0181 9.94873C55.603 10.3638 55.1066 10.5713 54.5288 10.5713C53.9347 10.5713 53.4261 10.3597 53.0029 9.93652C52.5879 9.50521 52.3804 8.98438 52.3804 8.37402C52.3804 7.78809 52.5879 7.2876 53.0029 6.87256C53.418 6.45752 53.9185 6.25 54.5044 6.25ZM52.832 11.7188H56.1768V25H52.832V11.7188ZM59.2041 11.7188H62.5244V13.0737C63.2812 12.439 63.9648 11.9995 64.5752 11.7554C65.1937 11.5031 65.8244 11.377 66.4673 11.377C67.7856 11.377 68.9046 11.8368 69.8242 12.7563C70.5973 13.5376 70.9839 14.6932 70.9839 16.2231V25H67.688V19.1772C67.688 17.5903 67.6147 16.5365 67.4683 16.0156C67.3299 15.4948 67.0817 15.1001 66.7236 14.8315C66.3737 14.5549 65.9383 14.4165 65.4175 14.4165C64.742 14.4165 64.1602 14.6444 63.6719 15.1001C63.1917 15.5477 62.8581 16.1702 62.6709 16.9678C62.5732 17.3828 62.5244 18.2821 62.5244 19.6655V25H59.2041V11.7188ZM84.0332 11.7188H87.3535V25H84.0332V23.5962C83.3822 24.2147 82.7271 24.6623 82.0679 24.939C81.4168 25.2075 80.7088 25.3418 79.9438 25.3418C78.2267 25.3418 76.7415 24.6785 75.4883 23.3521C74.235 22.0174 73.6084 20.3613 73.6084 18.3838C73.6084 16.333 74.2147 14.6525 75.4272 13.3423C76.6398 12.0321 78.1128 11.377 79.8462 11.377C80.6437 11.377 81.3924 11.5275 82.0923 11.8286C82.7922 12.1297 83.4391 12.5814 84.0332 13.1836V11.7188ZM80.5298 14.4531C79.4963 14.4531 78.6377 14.8193 77.9541 15.5518C77.2705 16.276 76.9287 17.2078 76.9287 18.3472C76.9287 19.4946 77.2746 20.4386 77.9663 21.1792C78.6662 21.9198 79.5247 22.29 80.542 22.29C81.5918 22.29 82.4626 21.9279 83.1543 21.2036C83.846 20.4712 84.1919 19.515 84.1919 18.335C84.1919 17.1794 83.846 16.2435 83.1543 15.5273C82.4626 14.8112 81.5877 14.4531 80.5298 14.4531ZM90.3687 6.5918H93.7012V25H90.3687V6.5918ZM115.356 17.9443L117.395 20.2759L116.467 21.1182L115.552 21.9482L118.433 25H114.294L113.11 23.7793C111.222 24.8942 109.469 25.4517 107.849 25.4517C106.474 25.4517 105.359 25.0488 104.504 24.2432C103.658 23.4375 103.235 22.404 103.235 21.1426C103.235 20.1904 103.475 19.2912 103.955 18.4448C104.435 17.5985 105.257 16.7236 106.421 15.8203C105.273 14.266 104.7 12.8906 104.7 11.6943C104.7 10.8073 105.082 9.93245 105.847 9.06982C106.612 8.20719 107.69 7.77588 109.082 7.77588C110.49 7.77588 111.568 8.20312 112.317 9.05762C113.074 9.91211 113.452 10.7747 113.452 11.6455C113.452 12.3291 113.277 12.9842 112.927 13.6108C112.585 14.2375 111.792 15.1652 110.547 16.394C112.004 18.1112 112.944 19.1813 113.367 19.6045C113.627 19.4092 114.29 18.8558 115.356 17.9443ZM108.862 13.9893C109.766 13.2161 110.217 12.5326 110.217 11.9385C110.217 11.6292 110.116 11.377 109.912 11.1816C109.709 10.9863 109.44 10.8887 109.106 10.8887C108.797 10.8887 108.533 10.9985 108.313 11.2183C108.101 11.438 107.996 11.6943 107.996 11.9873C107.996 12.5732 108.285 13.2406 108.862 13.9893ZM110.889 21.4111C110.262 20.7926 109.379 19.7673 108.24 18.335C107.027 19.3359 106.421 20.2108 106.421 20.9595C106.421 21.3094 106.584 21.6309 106.909 21.9238C107.243 22.2168 107.662 22.3633 108.167 22.3633C108.891 22.3633 109.798 22.0459 110.889 21.4111ZM128.137 7.04346H131.409L139.111 18.8599V7.04346H142.529V25H139.246L131.555 13.2202V25H128.137V7.04346ZM156.079 11.7188H159.399V25H156.079V23.5962C155.428 24.2147 154.773 24.6623 154.114 24.939C153.463 25.2075 152.755 25.3418 151.99 25.3418C150.273 25.3418 148.787 24.6785 147.534 23.3521C146.281 22.0174 145.654 20.3613 145.654 18.3838C145.654 16.333 146.261 14.6525 147.473 13.3423C148.686 12.0321 150.159 11.377 151.892 11.377C152.69 11.377 153.438 11.5275 154.138 11.8286C154.838 12.1297 155.485 12.5814 156.079 13.1836V11.7188ZM152.576 14.4531C151.542 14.4531 150.684 14.8193 150 15.5518C149.316 16.276 148.975 17.2078 148.975 18.3472C148.975 19.4946 149.32 20.4386 150.012 21.1792C150.712 21.9198 151.571 22.29 152.588 22.29C153.638 22.29 154.508 21.9279 155.2 21.2036C155.892 20.4712 156.238 19.515 156.238 18.335C156.238 17.1794 155.892 16.2435 155.2 15.5273C154.508 14.8112 153.634 14.4531 152.576 14.4531ZM163.171 6.82373H166.492V11.7188H168.469V14.5874H166.492V25H163.171V14.5874H161.462V11.7188H163.171V6.82373ZM170.251 11.7188H173.621V18.1152C173.621 19.3604 173.706 20.2271 173.877 20.7153C174.048 21.1955 174.32 21.5698 174.695 21.8384C175.077 22.1069 175.545 22.2412 176.099 22.2412C176.652 22.2412 177.12 22.111 177.502 21.8506C177.893 21.582 178.182 21.1914 178.369 20.6787C178.507 20.2962 178.577 19.4784 178.577 18.2251V11.7188H181.921V17.3462C181.921 19.6655 181.738 21.2524 181.372 22.1069C180.924 23.1486 180.265 23.9502 179.395 24.5117C178.524 25.0651 177.417 25.3418 176.074 25.3418C174.618 25.3418 173.438 25.0163 172.534 24.3652C171.639 23.7142 171.008 22.8068 170.642 21.6431C170.382 20.8374 170.251 19.3726 170.251 17.2485V11.7188ZM184.497 11.7188H187.354V13.3911C187.663 12.7319 188.074 12.2314 188.586 11.8896C189.099 11.5479 189.661 11.377 190.271 11.377C190.702 11.377 191.154 11.4909 191.626 11.7188L190.588 14.5874C190.198 14.3921 189.876 14.2944 189.624 14.2944C189.111 14.2944 188.676 14.6118 188.318 15.2466C187.968 15.8813 187.793 17.1265 187.793 18.9819L187.805 19.6289V25H184.497V11.7188ZM203.101 11.7188H206.421V25H203.101V23.5962C202.45 24.2147 201.794 24.6623 201.135 24.939C200.484 25.2075 199.776 25.3418 199.011 25.3418C197.294 25.3418 195.809 24.6785 194.556 23.3521C193.302 22.0174 192.676 20.3613 192.676 18.3838C192.676 16.333 193.282 14.6525 194.495 13.3423C195.707 12.0321 197.18 11.377 198.914 11.377C199.711 11.377 200.46 11.5275 201.16 11.8286C201.86 12.1297 202.507 12.5814 203.101 13.1836V11.7188ZM199.597 14.4531C198.564 14.4531 197.705 14.8193 197.021 15.5518C196.338 16.276 195.996 17.2078 195.996 18.3472C195.996 19.4946 196.342 20.4386 197.034 21.1792C197.734 21.9198 198.592 22.29 199.609 22.29C200.659 22.29 201.53 21.9279 202.222 21.2036C202.913 20.4712 203.259 19.515 203.259 18.335C203.259 17.1794 202.913 16.2435 202.222 15.5273C201.53 14.8112 200.655 14.4531 199.597 14.4531ZM209.436 6.5918H212.769V25H209.436V6.5918Z" fill="white"/>
</svg>
